# xmcd CD database file
#
# Track frame offsets:
#	150
#	17343
#	31161
#	60084
#	75459
#	87852
#	99501
#	113767
#	126007
#	150373
#	163677
#	175618
#	187976
#	202961
#	216295
#	240079
#	255415
#	268606
#
# Disc length: 3756 seconds
#
# Revision: 0
# Processed by: cddbd v1.5.2PL0 Copyright (c) Steve Scherf et al.
# Submitted via: CDex 1.51
#
DISCID=c50eaa12
DTITLE=Buddy Guy and Junior Wells - First Time I Met The Blues
DYEAR=2007
DGENRE=Blues
TTITLE0=BG - We're Ready
TTITLE1=BG - This Is The End
TTITLE2=BG - First Time I Met The Blues
TTITLE3=BG and JW - Hoodoo Man
TTITLE4=BG - You Sure Can't Do
TTITLE5=JW - Cha Cha In Blues
TTITLE6=BG - Sit And Cry
TTITLE7=JW - Little By Little
TTITLE8=BG and JW - Country Girl
TTITLE9=JW - I Could Cry
TTITLE10=BG - Try To Quit You
TTITLE11=BG - Lawdy! Lawdy!
TTITLE12=JW - 'Bout The Break Of Day
TTITLE13=JW - Junior's Wail
TTITLE14=BG and JW - In My Younger Days
TTITLE15=JW - So All Alone
TTITLE16=JW - Cut That Out
TTITLE17=BG - We're Ready - Finale
EXTD=YEAR: 2007
EXTT0=
EXTT1=
EXTT2=
EXTT3=
EXTT4=
EXTT5=
EXTT6=
EXTT7=
EXTT8=
EXTT9=
EXTT10=
EXTT11=
EXTT12=
EXTT13=
EXTT14=
EXTT15=
EXTT16=
EXTT17=
PLAYORDER=
